# xmcd
#
# Track frame offsets: 
#        150
#        12908
#        23269
#        35751
#        46784
#        59929
#        72010
#        85288
#        96984
#        109033
#        121925
#        134732
#        146401
#        158423
#        170173
#        183076
#        196499
#        209202
#        221109
#        234394
#        246197
#        257885
#        269967
#
# Disc length: 3768 seconds
#
# Revision: 0
# Processed by: cddbd v1.5.2PL0 Copyright (c) Steve Scherf et al.
# Submitted via: ExactAudioCopy v1.1
#
DISCID=5f0eb617
DTITLE=Luiz Gonzaga - O Rei Do Baião バイオーンの王様
DYEAR=2005
DGENRE=Latin
TTITLE0=Vira E Mexe クルクル回れ
TTITLE1=Seu Januario ジャヌアーリオさん
TTITLE2=Calango Da Lacraia ムカデのカランゴ
TTITLE3=No Meu Pé De Serra 丘のふもとで
TTITLE4=Asa Branca 白い翼
TTITLE5=Mangaratiba マンガラチーバ
TTITLE6=Baião バイオーン
TTITLE7=Juazeiro ジュアゼイロ
TTITLE8=Siridó シリドー
TTITLE9=Légua Tirana 残酷な距離
TTITLE10=Qui Nem Giló キ・ネン・ジロー
TTITLE11=Respeita Januário お父さんを尊敬しなさい
TTITLE12=Assum Preto 黒いキツツキ
TTITLE13=Boiadeiro 牛追い
TTITLE14=Baião Da Garoa 霧雨のバイオーン
TTITLE15=Paraíba パライーバ
TTITLE16=Imbalança スウィングなしで
TTITLE17=Catamilho Na Festa お祭りのとうもろこし
TTITLE18=Acaua アカウアーン
TTITLE19=O Xote Das Meninas 女の子のショーチ
TTITLE20=Abc Do Sertao セルターンのABC
TTITLE21=Vozes Da Seca 旱魃の声
TTITLE22=Asa Branca 白い翼
EXTD=
EXTT0=
EXTT1=
EXTT2=
EXTT3=
EXTT4=
EXTT5=
EXTT6=
EXTT7=
EXTT8=
EXTT9=
EXTT10=
EXTT11=
EXTT12=
EXTT13=
EXTT14=
EXTT15=
EXTT16=
EXTT17=
EXTT18=
EXTT19=
EXTT20=
EXTT21=
EXTT22=
PLAYORDER=
